<svg width="24" height="23" viewBox="0 0 24 23" fill="none" xmlns="http://www.w3.org/2000/svg">
<path d="M7.60253 7.01442L7.86258 6.9765L7.97883 6.74081L10.8129 0.994473C11.139 0.333992 12.0809 0.336255 12.4078 0.994825C12.4078 0.994952 12.4079 0.995079 12.408 0.995207L15.2417 6.74081L15.3579 6.9765L15.618 7.01442L21.9591 7.9389L21.9595 7.93895C22.686 8.04432 22.9785 8.94173 22.4507 9.45568L22.4506 9.45582L17.8629 13.9263L17.6745 14.1099L17.719 14.3691L18.8041 20.6838C18.9283 21.4102 18.1619 21.9595 17.5157 21.6196L17.5156 21.6196L11.8429 18.6378L11.6103 18.5155L11.3776 18.6378L5.70488 21.6196L5.70331 21.6204C5.06056 21.9612 4.29166 21.4133 4.41647 20.6838L5.50148 14.3691L5.54602 14.1099L5.35765 13.9263L0.769978 9.45582L0.769836 9.45568C0.241992 8.94173 0.534522 8.04432 1.26102 7.93895L1.26139 7.9389L7.60253 7.01442Z" stroke="url(#paint0_linear_21_273)"/>
<defs>
<linearGradient id="paint0_linear_21_273" x1="11.6103" y1="0" x2="11.6103" y2="22.225" gradientUnits="userSpaceOnUse">
<stop stop-color="#833AB4"/>
<stop offset="1" stop-color="#FD1D1D"/>
</linearGradient>
</defs>
</svg>
