<svg width="53" height="54" viewBox="0 0 53 54" fill="none" xmlns="http://www.w3.org/2000/svg">
<path d="M24.3965 6.18443L24.0984 6.3335L23.9493 6.63165L23.1875 8.15529L22.4257 6.63165L22.2766 6.3335L21.9785 6.18443L20.4548 5.42261L21.9785 4.66079L22.2766 4.51171L22.4257 4.21357L23.1875 2.68992L23.9493 4.21357L24.0984 4.51171L24.3965 4.66079L25.9202 5.42261L24.3965 6.18443ZM10.5938 10.6014L10.2956 10.7505L10.1465 11.0487L8.28125 14.78L6.41598 11.0487L6.26692 10.7505L5.96874 10.6014L2.23607 8.73511L5.96874 6.86878L6.26692 6.71969L6.41598 6.42149L8.28125 2.69026L10.1465 6.42149L10.2956 6.71969L10.5938 6.86878L14.3264 8.73511L10.5938 10.6014ZM42.4062 36.6813L42.7044 36.5322L42.8535 36.234L44.7188 32.5028L46.584 36.234L46.7331 36.5322L47.0313 36.6813L50.7639 38.5476L47.0313 40.414L46.7331 40.563L46.584 40.8612L44.7188 44.5925L42.8535 40.8612L42.7044 40.563L42.4062 40.414L38.6736 38.5476L42.4062 36.6813ZM51.3219 10.9152L51.3222 10.9155C52.2254 11.818 52.225 13.2824 51.3225 14.1835L51.3219 14.1841L13.7313 51.7758C13.2796 52.2275 12.6895 52.4528 12.0958 52.4528C11.5033 52.4528 10.9132 52.2276 10.4614 51.7758L1.67808 42.9925L1.6778 42.9922C0.774914 42.09 0.774506 40.6262 1.67808 39.7226L39.2687 2.13194L39.2693 2.13138C39.7208 1.67913 40.3105 1.45386 40.9042 1.45386C41.498 1.45386 42.0873 1.67921 42.5375 2.13081L42.5386 2.13194L51.3219 10.9152ZM36.5016 22.2223L37.2087 22.9294L37.9158 22.2223L46.8802 13.2578L47.5874 12.5507L46.8802 11.8436L41.6103 6.57361L40.9032 5.8665L40.1961 6.57361L31.2316 15.5381L30.5245 16.2452L31.2316 16.9523L36.5016 22.2223Z" stroke="url(#paint0_linear_21_216)" stroke-width="2"/>
<defs>
<linearGradient id="paint0_linear_21_216" x1="26.5" y1="0.453857" x2="26.5" y2="53.4528" gradientUnits="userSpaceOnUse">
<stop stop-color="#833AB4"/>
<stop offset="1" stop-color="#FD1D1D"/>
</linearGradient>
</defs>
</svg>
